{"title":"Kid Ink_My Own Lane (2014 Exclusive Edition) FLAC {inyd}","uid":9460023,"size":711524369,"categoryP":"audio","categoryS":"flac","magnet":"?xt=urn:btih:adf9fec22a6e9277195d94143a9bbc9cc08f13ac&amp;dn=Kid+Ink_My+Own+Lane+%282014+Exclusive+Edition%29+FLAC+%7Binyd%7D&amp;tr=udp%3A%2F%2Ftracker.openbittorrent.com%3A80&amp;tr=udp%3A%2F%2Fopen.demonii.com%3A1337&amp;tr=udp%3A%2F%2Ftracker.coppersurfer.tk%3A6969&amp;tr=udp%3A%2F%2Fexodus.desync.com%3A6969","seeders":11,"leechers":1,"uploader":"imPROvise","files":-1,"time":1389333224,"description":"General\nFormat                                   : FLAC\nFormat/Info                              : Free Lossless Audio Codec\nOverall bit rate mode                    : Variable\nOverall bit rate                         : 1 414 Kbps\nAlbum                                    : My Own Lane (Best Buy Exclusive Edition)\nPerformer                                : Kid Ink\nGenre                                    : Hip-Hop\nRecorded date                            : January 7, 2014\nWriting application                      : (FLAC 1.2.1)\nCover                                    : Yes\nCover type                               : Cover (front)\nCover MIME                               : image/jpeg\nSource                                   : CD (Lossless)\nEncoder Settings                         : -uncompressed -verify\n\nAudio\nFormat                                   : FLAC\nFormat/Info                              : Free Lossless Audio Codec\nBit rate mode                            : Variable\nBit rate                                 : 1 412 Kbps\nChannel(s)                               : 2 channels\nSampling rate                            : 44.1 KHz\nBit depth                                : 16 bits\n\n\nTRACK 1\nFile size                                : 34.6 MiB\nDuration                                 : 3mn 25s\nPart                                     : 1\nPart/Total                               : 1\nTrack name                               : Hello World\nTrack name/Position                      : 1\nTrack name/Total                         : 17\n\nAudio\nDuration                                 : 3mn 25s\nStream size                              : 34.5 MiB (100%)\n\nTrack 2\nFile size                                : 35.6 MiB\nDuration                                 : 3mn 31s\nPart                                     : 1\nPart/Total                               : 1\nTrack name                               : The Movement\nTrack name/Position                      : 2\nTrack name/Total                         : 17\n\nAudio\nDuration                                 : 3mn 31s\nStream size                              : 35.5 MiB (100%)\n\nTrack 3\nFile size                                : 36.7 MiB\nDuration                                 : 3mn 37s\nPart                                     : 1\nPart/Total                               : 1\nTrack name                               : Show Me\nTrack name/Position                      : 3\nTrack name/Total                         : 17\n\nAudio\nDuration                                 : 3mn 37s\nStream size                              : 36.7 MiB (100%)\n\nTrack 4\nFile size                                : 39.7 MiB\nDuration                                 : 3mn 55s\nPart                                     : 1\nPart/Total                               : 1\nTrack name                               : Iz U Down\nTrack name/Position                      : 4\nTrack name/Total                         : 17\n\nAudio\nDuration                                 : 3mn 55s\nStream size                              : 39.7 MiB (100%)\n\nTrack 5\nFile size                                : 39.6 MiB\nPart                                     : 1\nPart/Total                               : 1\nTrack name                               : We Just Came to Party\nTrack name/Position                      : 5\nTrack name/Total                         : 17\n\nAudio\nDuration                                 : 3mn 54s\nStream size                              : 39.5 MiB (100%)\n\nTrack 6\nFile size                                : 33.4 MiB\nDuration                                 : 3mn 17s\nPart                                     : 1\nPart/Total                               : 1\nTrack name                               : Main Chick\nTrack name/Position                      : 6\nTrack name/Total                         : 17\n\nAudio\nDuration                                 : 3mn 17s\nStream size                              : 33.3 MiB (100%)\n\n\nTrack 7\nDuration                                 : 3mn 28s\nPart                                     : 1\nPart/Total                               : 1\nTrack name                               : No Option\nTrack name/Position                      : 7\nTrack name/Total                         : 17\n\nAudio\nDuration                                 : 3mn 28s\nStream size                              : 35.2 MiB (100%)\n\nTrack 8\nDuration                                 : 3mn 37s\nPart                                     : 1\nPart/Total                               : 1\nTrack name                               : Murda\nTrack name/Position                      : 8\nTrack name/Total                         : 17\n\nAudio\nDuration                                 : 3mn 37s\nStream size                              : 36.6 MiB (100%)\n\nTrack 9\nDuration                                 : 3mn 13s\nPart                                     : 1\nPart/Total                               : 1\nTrack name                               : Rollin'\nTrack name/Position                      : 9\nTrack name/Total                         : 17\n\nAudio\nDuration                                 : 3mn 13s\nStream size                              : 32.6 MiB (100%)\n\nTrack 10\nDuration                                 : 3mn 28s\nPart                                     : 1\nPart/Total                               : 1\nTrack name                               : Tatto of My Name\nTrack name/Position                      : 10\nTrack name/Total                         : 17\n\nAudio\nDuration                                 : 3mn 28s\nStream size                              : 35.2 MiB (100%)\n\nTrack 11\nFile size                                : 46.7 MiB\nDuration                                 : 4mn 36s\nPart                                     : 1\nPart/Total                               : 1\nTrack name                               : No Miracles\nTrack name/Position                      : 11\nTrack name/Total                         : 17\n\nAudio\nDuration                                 : 4mn 36s\nStream size                              : 46.6 MiB (100%)\n\nTrack 12\nFile size                                : 40.8 MiB\nDuration                                 : 4mn 2s\nPart                                     : 1\nPart/Total                               : 1\nTrack name                               : I Don't Care\nTrack name/Position                      : 12\nTrack name/Total                         : 17\nPerformer                                : Kid Ink\n\nAudio\nDuration                                 : 4mn 2s\nStream size                              : 40.8 MiB (100%)\n\nTrack 13\nFile size                                : 35.9 MiB\nDuration                                 : 3mn 32s\nPart                                     : 1\nPart/Total                               : 1\nTrack name                               : More Than a King\nTrack name/Position                      : 13\nTrack name/Total                         : 17\n\nAudio\nDuration                                 : 3mn 32s\nStream size                              : 35.8 MiB (100%)\n\nTrack 14\nFile size                                : 38.0 MiB\nDuration                                 : 3mn 45s\nPart                                     : 1\nPart/Total                               : 1\nTrack name                               : Star Player\nTrack name/Position                      : 14\nTrack name/Total                         : 17\n\nAudio\nDuration                                 : 3mn 45s\nStream size                              : 37.9 MiB (100%)\n\nTrack 15\nFile size                                : 38.5 MiB\nDuration                                 : 3mn 48s\nPart                                     : 1\nPart/Total                               : 1\nTrack name                               : My System\nTrack name/Position                      : 15\nTrack name/Total                         : 17\n\nAudio\nDuration                                 : 3mn 48s\nStream size                              : 38.4 MiB (100%)\n\nTrack 16\nDuration                                 : 4mn 58s\nPart                                     : 1\nPart/Total                               : 1\nTrack name                               : Money and the Power\nTrack name/Position                      : 16\nTrack name/Total                         : 17\n\nAudio\nDuration                                 : 4mn 58s\nStream size                              : 50.2 MiB (100%)\n\nTrack 17\nFile size                                : 69.1 MiB\nDuration                                 : 6mn 50s\nPart                                     : 1\nPart/Total                               : 1\nTrack name                               : Bad Ass\nTrack name/Position                      : 17\nTrack name/Total                         : 17\n\nAudio\nDuration                                 : 6mn 50s\nStream size                              : 69.0 MiB (100%)\n","torrent":{"xt":"urn:btih:adf9fec22a6e9277195d94143a9bbc9cc08f13ac","amp;dn":"Kid+Ink_My+Own+Lane+%282014+Exclusive+Edition%29+FLAC+%7Binyd%7D","amp;tr":["udp%3A%2F%2Ftracker.openbittorrent.com%3A80","udp%3A%2F%2Fopen.demonii.com%3A1337","udp%3A%2F%2Ftracker.coppersurfer.tk%3A6969","udp%3A%2F%2Fexodus.desync.com%3A6969"],"infoHash":"adf9fec22a6e9277195d94143a9bbc9cc08f13ac","infoHashBuffer":{"type":"Buffer","data":[173,249,254,194,42,110,146,119,25,93,148,20,58,155,188,156,192,143,19,172]},"announce":[],"urlList":[]}}